# xmcd CD database file
#
# Track frame offsets:
#	150
#	34921
#	61273
#	85817
#	112328
#	151570
#	179640
#	206590
#	227981
#	250591
#	285706
#	310502
#
# Disc length: 4587 seconds
#
# Revision: 0
# Processed by: cddbd v1.5.1PL0 Copyright (c) Steve Scherf et al.
# Submitted via: CDex 1.51
#
DISCID=9f11e90c
DTITLE=Various Artist - The Best of Remixes Volume 1
DYEAR=2005
DGENRE=Mix
TTITLE0=Operator 
TTITLE1=Thuggish Ruggish Bones
TTITLE2=I´ve been thinking about you
TTITLE3=Erverything but the Girl
TTITLE4=Whoomp
TTITLE5=In the City
TTITLE6=Here I Am
TTITLE7=Feel the Music
TTITLE8=Give me a Reason
TTITLE9=Tic Tac
TTITLE10=Push It
TTITLE11=Boogie Down
EXTD=YEAR: 2005
EXTT0=
EXTT1=
EXTT2=
EXTT3=
EXTT4=
EXTT5=
EXTT6=
EXTT7=
EXTT8=
EXTT9=
EXTT10=
EXTT11=
PLAYORDER=
